# This file uses centimeters as units for non-parametric coordinates.

mtllib Scoop.mtl
g default
v -1.191126 0.160489 0.524225
v -0.922178 0.140010 0.825313
v -0.392058 0.123534 1.048060
v 0.226895 0.256442 1.111509
v 0.615959 0.421454 0.987916
v 1.130102 0.855164 0.499876
v -0.413246 -0.225855 0.755916
v 0.289876 -0.052485 0.755916
v -0.892866 -0.143239 0.377958
v -0.417590 -0.290346 0.377958
v 0.302788 -0.115819 0.377958
v 0.860041 0.292876 0.442442
v -1.389804 0.199362 0.000000
v -0.892866 -0.143239 0.000000
v -0.417590 -0.290346 0.000000
v 0.302788 -0.115819 0.000000
v -1.191126 0.160489 -0.524225
v -0.892866 -0.143239 -0.377958
v -0.417590 -0.290346 -0.377958
v 0.302788 -0.115819 -0.377958
v 0.860041 0.292876 -0.442442
v 1.130102 0.855164 -0.499876
v -0.922178 0.140010 -0.825313
v -0.413246 -0.225855 -0.755916
v 0.289876 -0.052485 -0.755916
v 0.615959 0.421454 -0.987916
v -0.392058 0.123534 -1.048060
v 0.226895 0.256442 -1.111509
v -0.878431 0.214931 0.810339
v -0.385069 0.207549 1.023226
v -0.404682 -0.102677 0.741469
v 0.216899 0.308307 1.085088
v 0.275175 0.003198 0.742280
v 0.588791 0.470256 0.972752
v -1.165846 0.242660 0.519653
v -0.893652 -0.043803 0.374412
v -0.408079 -0.164655 0.374600
v 0.285640 -0.058399 0.374752
v 0.689037 0.224392 0.374841
v 1.100972 0.907061 0.496810
v -0.893689 -0.043624 0.000000
v -1.372506 0.256857 0.000000
v -0.408171 -0.164492 0.000000
v 0.285537 -0.058290 0.000000
v 0.688843 0.224413 -0.000000
v 1.230804 0.964158 -0.000000
v -0.893652 -0.043803 -0.374412
v -1.165846 0.242660 -0.519653
v -0.408079 -0.164655 -0.374600
v 0.285640 -0.058399 -0.374752
v 0.689037 0.224392 -0.374841
v 1.100972 0.907061 -0.496810
v -0.878431 0.214931 -0.810339
v -0.404682 -0.102677 -0.741469
v 0.275175 0.003198 -0.742280
v 0.588791 0.470256 -0.972752
v -0.385069 0.207549 -1.023226
v 0.216899 0.308307 -1.085088
v 1.239353 0.902658 -0.000000
v 1.007672 0.551834 -0.459237
v 1.111798 0.652205 -0.000000
v 1.007672 0.551834 0.459237
v 0.789082 0.357165 0.603341
v 0.296332 -0.084152 0.566937
v -0.415418 -0.258101 0.566937
v -0.943976 -0.022283 0.601635
v 0.789082 0.357165 -0.603341
v 0.296332 -0.084152 -0.566937
v -0.415418 -0.258101 -0.566937
v -0.943976 -0.022283 -0.601635
v 0.494841 0.184484 0.792320
v 0.630115 0.136506 0.585139
v 0.779696 0.088528 0.377958
v 0.761298 0.007074 0.000000
v 0.779696 0.088528 -0.377958
v 0.630115 0.136506 -0.585139
v 0.494841 0.184484 -0.792320
v 5.787834 0.032474 0.463362
v 5.874488 -0.078444 0.000000
v 6.031549 0.267591 0.000000
v 5.886333 0.282996 0.588823
v 5.787834 0.032474 -0.463362
v 5.886333 0.282996 -0.588823
v 5.868270 0.600469 0.563006
v 5.935978 0.751642 -0.000000
v 5.868270 0.600469 -0.563006
v 0.907749 0.454499 0.531289
v 0.873031 0.638309 0.859510
v 0.844881 0.688658 0.849017
v 0.895004 0.565727 0.435826
v 0.959824 0.594286 -0.000000
v 0.895004 0.565727 -0.435826
v 0.844881 0.688658 -0.849017
v 0.873031 0.638309 -0.859510
v 0.907749 0.454499 -0.531289
v -0.042947 0.157295 1.090360
v -0.066285 0.247647 1.064467
v -0.033971 -0.059168 0.742010
v -0.028128 -0.120892 0.374701
v -0.028227 -0.120765 0.000000
v -0.028128 -0.120892 -0.374701
v -0.033971 -0.059168 -0.742010
v -0.066285 0.247647 -1.064467
v -0.042947 0.157295 -1.090360
v -0.008022 -0.188333 -0.755916
v -0.004442 -0.220193 -0.566937
v -0.000862 -0.252053 -0.377958
v -0.000862 -0.252053 0.000000
v -0.000862 -0.252053 0.377958
v -0.004442 -0.220193 0.566937
v -0.008022 -0.188333 0.755916
vt 0.753449 0.326414
vt 0.859403 0.297622
vt 0.803628 0.372316
vt 0.739475 0.372328
vt 0.822664 0.283589
vt 0.908949 0.313080
vt 0.881061 0.364698
vt 0.803632 0.419144
vt 0.739500 0.419144
vt 0.958495 0.357079
vt 0.887540 0.419144
vt 0.803628 0.465971
vt 0.739475 0.465959
vt 0.971447 0.419144
vt 0.881061 0.473589
vt 0.859403 0.540665
vt 0.753449 0.511873
vt 0.958495 0.481208
vt 0.908949 0.525207
vt 0.822664 0.554698
vt 0.292203 0.623068
vt 0.223301 0.641340
vt 0.250740 0.613397
vt 0.301021 0.688557
vt 0.223301 0.688557
vt 0.197244 0.617732
vt 0.189929 0.641340
vt 0.287557 0.585454
vt 0.310844 0.623639
vt 0.314065 0.688557
vt 0.292203 0.754046
vt 0.223301 0.735773
vt 0.189929 0.688557
vt 0.204559 0.594124
vt 0.304553 0.587325
vt 0.310844 0.753475
vt 0.250740 0.763716
vt 0.189929 0.735773
vt 0.287557 0.791659
vt 0.304553 0.789788
vt 0.197244 0.759381
vt 0.204559 0.782990
vt 0.268217 0.821964
vt 0.326103 0.796802
vt 0.326103 0.875301
vt 0.252544 0.878796
vt 0.383988 0.821964
vt 0.399662 0.878796
vt 0.255769 0.950816
vt 0.326103 0.985111
vt 0.396436 0.950816
vt 0.684796 0.065475
vt 0.634738 0.067749
vt 0.645622 0.041867
vt 0.699380 0.017432
vt 0.623854 0.093631
vt 0.670211 0.085576
vt 0.584681 0.070023
vt 0.591865 0.046415
vt 0.661946 0.001992
vt 0.748575 0.033473
vt 0.706877 0.074476
vt 0.577497 0.093631
vt 0.553819 0.070023
vt 0.561047 0.046415
vt 0.728958 0.083477
vt 0.797770 0.078401
vt 0.546592 0.093631
vt 0.577497 0.140848
vt 0.605376 0.140848
vt 0.759997 0.034784
vt 0.809543 0.078784
vt 0.808544 0.140848
vt 0.751727 0.140848
vt 0.546592 0.140848
vt 0.577497 0.188064
vt 0.623854 0.188064
vt 0.822496 0.140848
vt 0.797770 0.203295
vt 0.728958 0.198218
vt 0.546592 0.188064
vt 0.634738 0.213946
vt 0.584681 0.211673
vt 0.809543 0.202912
vt 0.748575 0.248222
vt 0.706877 0.207219
vt 0.553819 0.211673
vt 0.684796 0.216220
vt 0.670211 0.196120
vt 0.591865 0.235281
vt 0.645622 0.239828
vt 0.759997 0.246911
vt 0.699380 0.264263
vt 0.561047 0.235281
vt 0.661946 0.279703
vt 0.111397 0.849979
vt 0.111782 0.804148
vt 0.153856 0.804080
vt 0.154519 0.849967
vt 0.058014 0.795544
vt 0.056286 0.850003
vt 0.188942 0.804047
vt 0.190130 0.849960
vt 0.111386 0.896776
vt 0.154508 0.896776
vt 0.056282 0.896776
vt 0.190118 0.896776
vt 0.111397 0.943573
vt 0.154519 0.943586
vt 0.056286 0.943550
vt 0.025394 0.831858
vt 0.001939 0.896776
vt 0.190130 0.943592
vt 0.111782 0.989404
vt 0.153856 0.989472
vt 0.058014 0.998008
vt 0.025394 0.961694
vt 0.188942 0.989506
vt 0.197775 0.960802
vt 0.197528 0.937194
vt 0.244825 0.937194
vt 0.244418 0.960802
vt 0.197528 0.889977
vt 0.244825 0.889977
vt 0.198021 0.984410
vt 0.244012 0.984410
vt 0.197528 0.842761
vt 0.244825 0.842761
vt 0.197775 0.819153
vt 0.244418 0.819153
vt 0.198021 0.795544
vt 0.244012 0.795544
vt 0.107041 0.580225
vt 0.059825 0.582313
vt 0.059825 0.001992
vt 0.117710 0.011827
vt 0.012608 0.580225
vt 0.001939 0.011827
vt 0.468953 0.549512
vt 0.411582 0.561330
vt 0.398619 0.009677
vt 0.468953 0.001992
vt 0.526323 0.561330
vt 0.539286 0.009677
vt 0.427391 0.927729
vt 0.429065 0.871736
vt 0.499441 0.873962
vt 0.419969 0.835555
vt 0.489571 0.831888
vt 0.406208 0.803415
vt 0.475423 0.796801
vt 0.578804 0.927730
vt 0.506753 0.873962
vt 0.577129 0.871736
vt 0.516623 0.831888
vt 0.586226 0.835555
vt 0.530771 0.796802
vt 0.599987 0.803416
vt 0.529756 0.648213
vt 0.587517 0.565215
vt 0.589922 0.644476
vt 0.629544 0.652135
vt 0.633508 0.573727
vt 0.590715 0.663535
vt 0.534721 0.665210
vt 0.626895 0.672632
vt 0.667318 0.604545
vt 0.660170 0.674627
vt 0.659035 0.686393
vt 0.704326 0.712061
vt 0.701243 0.723131
vt 0.733503 0.761255
vt 0.730308 0.772677
vt 0.320037 0.709918
vt 0.380202 0.713656
vt 0.377798 0.792916
vt 0.325002 0.692922
vt 0.380996 0.694596
vt 0.419825 0.705997
vt 0.423789 0.784405
vt 0.417176 0.685500
vt 0.450450 0.683505
vt 0.457598 0.753587
vt 0.449316 0.671739
vt 0.494607 0.646071
vt 0.491524 0.635000
vt 0.520589 0.585454
vt 0.523784 0.596877
vt 0.184513 0.572451
vt 0.138155 0.581569
vt 0.125439 0.013171
vt 0.182272 0.001992
vt 0.243259 0.555695
vt 0.254292 0.004042
vt 0.378165 0.581569
vt 0.331808 0.572450
vt 0.334050 0.001992
vt 0.390882 0.013171
vt 0.273062 0.555695
vt 0.262029 0.004042
vt 0.686149 0.841548
vt 0.668005 0.776563
vt 0.722463 0.835258
vt 0.643612 0.841548
vt 0.607298 0.835258
vt 0.661757 0.776563
vn 0.241144 0.945218 -0.220031
vn -0.002468 0.871472 -0.490439
vn 0.166167 0.883692 -0.437581
vn -0.126948 0.821375 -0.556082
vn -0.118523 0.878624 -0.462572
vn -0.321010 0.816832 -0.479310
vn -0.682838 0.687539 -0.247029
vn -0.451217 0.793829 -0.407724
vn 0.394455 0.915189 -0.082676
vn 0.432091 0.880505 -0.194960
vn 0.138630 0.979427 -0.146647
vn -0.150495 0.985200 -0.082056
vn -0.697652 0.693605 -0.179426
vn -0.470849 0.871435 -0.137485
vn -0.704420 0.689812 -0.167187
vn -0.799544 0.569833 -0.189790
vn 0.444013 0.896020 0.000000
vn 0.422927 0.906164 0.000000
vn 0.088747 0.996054 0.000000
vn -0.151369 0.988477 0.000000
vn -0.709534 0.704671 0.000000
vn -0.433798 0.901010 0.000000
vn -0.826953 0.562271 0.000000
vn 0.432091 0.880505 0.194960
vn 0.394455 0.915189 0.082676
vn 0.138630 0.979427 0.146647
vn -0.150495 0.985200 0.082056
vn -0.697652 0.693605 0.179426
vn -0.470849 0.871435 0.137485
vn -0.799544 0.569833 0.189790
vn 0.241144 0.945218 0.220031
vn 0.166167 0.883692 0.437581
vn -0.118523 0.878624 0.462572
vn -0.682838 0.687539 0.247028
vn -0.451217 0.793829 0.407724
vn -0.704420 0.689812 0.167187
vn -0.002468 0.871472 0.490439
vn -0.126949 0.821375 0.556082
vn -0.321010 0.816832 0.479310
vn -0.514273 -0.439318 0.736562
vn -0.179289 -0.814323 0.552027
vn -0.148910 -0.514930 0.844200
vn 0.123987 -0.601898 0.788889
vn 0.156028 -0.811801 0.562703
vn 0.318754 -0.531507 0.784791
vn 0.592304 -0.644755 0.483184
vn 0.619604 -0.489388 0.613670
vn -0.745328 -0.617282 0.251891
vn -0.461565 -0.878371 0.124188
vn -0.461581 -0.805796 0.370992
vn -0.199923 -0.937459 0.284958
vn -0.134344 -0.987314 0.084632
vn 0.231629 -0.971265 0.054696
vn 0.234056 -0.957793 0.166881
vn 0.680774 -0.575760 0.452822
vn 0.580969 -0.696862 0.420545
vn 0.016921 -0.873972 0.485681
vn 0.680876 -0.487512 0.546571
vn 0.755857 -0.516856 0.401921
vn -0.749322 -0.662206 0.000000
vn -0.484410 -0.874841 0.000000
vn -0.121090 -0.992642 0.000000
vn 0.235459 -0.971884 0.000000
vn 0.041167 -0.845467 0.532439
vn 0.044783 -0.998997 0.000000
vn 0.993793 -0.111242 0.000000
vn 0.117600 -0.160951 0.979931
vn -0.745328 -0.617282 -0.251891
vn -0.461565 -0.878371 -0.124188
vn -0.134344 -0.987314 -0.084632
vn 0.231629 -0.971265 -0.054696
vn 0.041167 -0.845467 -0.532439
vn 0.117600 -0.160951 -0.979931
vn -0.514273 -0.439318 -0.736562
vn -0.461581 -0.805797 -0.370992
vn -0.199923 -0.937459 -0.284958
vn -0.179289 -0.814323 -0.552027
vn 0.156028 -0.811801 -0.562703
vn 0.234056 -0.957793 -0.166881
vn 0.680774 -0.575760 -0.452822
vn 0.580969 -0.696862 -0.420545
vn 0.592304 -0.644755 -0.483184
vn 0.619604 -0.489388 -0.613670
vn 0.762991 -0.351564 -0.542445
vn 0.755857 -0.516856 -0.401921
vn -0.148910 -0.514930 -0.844200
vn 0.123987 -0.601898 -0.788889
vn 0.318754 -0.531507 -0.784791
vn 0.762991 -0.351564 0.542445
vn 0.063678 0.782559 0.619311
vn 0.053632 0.998561 -0.000000
vn 0.063678 0.782559 -0.619311
vn -0.726846 0.683203 0.070209
vn -0.740765 0.671764 0.000000
vn 0.959412 -0.282007 -0.000000
vn 0.923470 -0.249561 -0.291414
vn -0.726846 0.683203 -0.070209
vn 0.923470 -0.249561 0.291414
vn 0.907624 -0.419784 -0.000000
vn 0.860772 -0.427014 -0.277002
vn 0.860772 -0.427014 0.277002
vn 0.680876 -0.487513 -0.546571
vn 0.016921 -0.873972 -0.485681
vn 0.398471 -0.744900 0.535113
vn 0.456950 -0.847404 0.270374
vn 0.383676 -0.915023 0.124606
vn 0.362321 -0.932053 0.000000
vn 0.016076 -0.999871 -0.000000
vn 0.383676 -0.915022 -0.124606
vn 0.456950 -0.847404 -0.270374
vn 0.398471 -0.744900 -0.535113
vn -0.025072 -0.198539 0.979772
vn -0.025072 -0.198539 -0.979772
vn -0.026074 0.708506 0.705223
vn -0.017891 0.999840 -0.000000
vn -0.026074 0.708506 -0.705223
s 1
g pPlane1
usemtl initialShadingGroup
f 29/145/1 30/146/2 31/147/3
f 31/147/3 30/146/2 97/148/4 98/149/5
f 32/5/6 34/2/7 33/1/8
f 35/204/9 29/205/1 36/206/10
f 29/100/1 31/97/3 37/96/11 36/101/10
f 37/96/11 31/97/3 98/98/5 99/99/12
f 33/1/8 34/2/7 39/3/13 38/4/14
f 34/2/7 89/6/15 90/7/16 39/3/13
f 35/111/9 36/101/10 41/106/17 42/112/18
f 36/101/10 37/96/11 43/104/19 41/106/17
f 43/104/19 37/96/11 99/99/12 100/105/20
f 38/4/14 39/3/13 45/8/21 44/9/22
f 39/3/13 90/7/16 91/11/23 45/8/21
f 42/112/18 41/106/17 47/110/24 48/117/25
f 41/106/17 43/104/19 49/108/26 47/110/24
f 49/108/26 43/104/19 100/105/20 101/109/27
f 44/9/22 45/8/21 51/12/28 50/13/29
f 45/8/21 91/11/23 92/15/30 51/12/28
f 48/201/25 47/202/24 53/203/31
f 47/110/24 49/108/26 54/114/32 53/116/31
f 54/114/32 49/108/26 101/109/27 102/115/33
f 50/13/29 51/12/28 56/16/34 55/17/35
f 51/12/28 92/15/30 93/19/36 56/16/34
f 53/152/31 54/153/32 57/154/37
f 57/154/37 54/153/32 102/155/33 103/156/38
f 55/17/35 56/16/34 58/20/39
f 2/159/40 7/160/41 3/161/42
f 96/162/43 3/161/42 7/160/41 111/163/44
f 4/95/45 71/91/46 5/93/47
f 1/21/48 9/22/49 66/23/50
f 65/26/51 66/23/50 9/22/49 10/27/52
f 65/119/51 10/120/52 109/121/53 110/122/54
f 63/88/55 72/82/56 73/77/57 12/89/58
f 12/89/58 87/86/59 63/88/55
f 1/21/48 13/24/60 14/25/61 9/22/49
f 9/22/49 14/25/61 15/33/62 10/27/52
f 10/120/52 15/123/62 108/124/63 109/121/53
f 78/43/64 79/44/65 80/45/66 81/46/67
f 13/24/60 17/31/68 18/32/69 14/25/61
f 14/25/61 18/32/69 19/38/70 15/33/62
f 15/123/62 19/127/70 107/128/71 108/124/63
f 79/44/65 82/47/72 83/48/73 80/45/66
f 17/31/68 23/39/74 70/37/75
f 69/41/76 70/37/75 23/39/74 24/42/77
f 69/129/76 24/131/77 105/132/78 106/130/79
f 67/52/80 76/53/81 77/54/82 26/55/83
f 94/61/84 95/62/85 67/52/80 26/55/83
f 23/174/74 27/175/86 24/176/77
f 24/176/77 27/175/86 104/179/87 105/180/78
f 77/54/82 28/60/88 26/55/83
f 2/159/40 3/161/42 30/164/2 29/165/1
f 30/164/2 3/161/42 96/162/43 97/166/4
f 4/168/45 5/170/47 34/171/7 32/169/6
f 1/21/48 2/28/40 29/35/1 35/29/9
f 5/170/47 88/172/89 89/173/15 34/171/7
f 13/24/60 1/21/48 35/29/9 42/30/18
f 17/31/68 13/24/60 42/30/18 48/36/25
f 23/39/74 17/31/68 48/36/25 53/40/31
f 93/187/36 94/188/84 26/185/83 56/186/34
f 27/175/86 23/174/74 53/177/31 57/178/37
f 27/175/86 57/178/37 103/181/38 104/179/87
f 26/185/83 28/182/88 58/184/39 56/186/34
f 84/49/90 81/46/67 80/45/66 85/50/91
f 80/45/66 83/48/73 86/51/92 85/50/91
f 52/72/93 46/78/94 59/73/95 22/67/96
f 46/78/94 40/84/97 6/79/98 59/73/95
f 59/73/95 61/74/99 60/66/100 22/67/96
f 6/79/98 62/80/101 61/74/99 59/73/95
f 5/93/47 63/88/55 87/86/59 88/85/89
f 71/91/46 72/82/56 63/88/55 5/93/47
f 7/125/41 65/119/51 110/122/54 111/126/44
f 2/28/40 66/23/50 65/26/51 7/34/41
f 1/21/48 66/23/50 2/28/40
f 21/57/102 67/52/80 95/62/85
f 75/56/103 76/53/81 67/52/80 21/57/102
f 19/127/70 69/129/76 106/130/79 107/128/71
f 18/32/69 70/37/75 69/41/76 19/38/70
f 17/31/68 70/37/75 18/32/69
f 4/95/45 8/90/104 71/91/46
f 8/90/104 64/83/105 72/82/56 71/91/46
f 73/77/57 72/82/56 64/83/105 11/76/106
f 11/76/106 16/69/107 74/70/108 73/77/57
f 16/69/107 20/63/109 75/56/103 74/70/108
f 20/63/109 68/58/110 76/53/81 75/56/103
f 77/54/82 76/53/81 68/58/110 25/59/111
f 25/59/111 28/60/88 77/54/82
f 73/133/57 74/134/108 79/135/65 78/136/64
f 12/189/112 73/190/57 78/191/64 81/192/67
f 74/134/108 75/137/103 82/138/72 79/135/65
f 75/195/103 21/196/113 83/197/73 82/198/72
f 62/193/114 12/189/112 81/192/67 84/194/90
f 61/139/115 62/140/114 84/141/90 85/142/91
f 21/196/113 60/199/116 86/200/92 83/197/73
f 60/143/116 61/139/115 85/142/91 86/144/92
f 62/80/101 87/86/59 12/89/58
f 88/85/89 87/86/59 62/80/101 6/79/98
f 89/92/15 88/85/89 6/79/98 40/84/97
f 90/7/16 89/6/15 40/10/97
f 91/11/23 90/7/16 40/10/97 46/14/94
f 92/15/30 91/11/23 46/14/94 52/18/93
f 93/19/36 92/15/30 52/18/93
f 22/67/96 94/61/84 93/71/36 52/72/93
f 60/66/100 95/62/85 94/61/84 22/67/96
f 21/57/102 95/62/85 60/66/100
f 96/162/43 4/168/45 32/169/6 97/166/4
f 98/149/5 97/148/4 32/150/6 33/151/8
f 99/99/12 98/98/5 33/102/8 38/103/14
f 100/105/20 99/99/12 38/103/14 44/107/22
f 101/109/27 100/105/20 44/107/22 50/113/29
f 102/115/33 101/109/27 50/113/29 55/118/35
f 103/156/38 102/155/33 55/157/35 58/158/39
f 28/182/88 104/179/87 103/181/38 58/184/39
f 105/180/78 104/179/87 28/182/88 25/183/111
f 68/58/110 106/64/79 105/65/78 25/59/111
f 107/68/71 106/64/79 68/58/110 20/63/109
f 108/75/63 107/68/71 20/63/109 16/69/107
f 109/81/53 108/75/63 16/69/107 11/76/106
f 64/83/105 110/87/54 109/81/53 11/76/106
f 111/94/44 110/87/54 64/83/105 8/90/104
f 96/162/43 111/163/44 8/167/104 4/168/45
